<?xml version="1.0" encoding="UTF-8" standalone="no"?>
<svg
   xmlns:dc="http://purl.org/dc/elements/1.1/"
   xmlns:cc="http://creativecommons.org/ns#"
   xmlns:rdf="http://www.w3.org/1999/02/22-rdf-syntax-ns#"
   xmlns:svg="http://www.w3.org/2000/svg"
   xmlns="http://www.w3.org/2000/svg"
   xmlns:sodipodi="http://sodipodi.sourceforge.net/DTD/sodipodi-0.dtd"
   xmlns:inkscape="http://www.inkscape.org/namespaces/inkscape"
   height="138"
   viewBox="0 0 100.48485 34.291569"
   width="400"
   id="svg3022"
   version="1.1"
   inkscape:version="0.48.1 "
   sodipodi:docname="hot wheels textlogo.svg">
  <metadata
     id="metadata3057">
    <rdf:RDF>
      <cc:Work
         rdf:about="">
        <dc:format>image/svg+xml</dc:format>
        <dc:type
           rdf:resource="http://purl.org/dc/dcmitype/StillImage" />
      </cc:Work>
    </rdf:RDF>
  </metadata>
  <defs
     id="defs3055" />
  <sodipodi:namedview
     pagecolor="#ffffff"
     bordercolor="#666666"
     borderopacity="1"
     objecttolerance="10"
     gridtolerance="10"
     guidetolerance="10"
     inkscape:pageopacity="0"
     inkscape:pageshadow="2"
     inkscape:window-width="1280"
     inkscape:window-height="657"
     id="namedview3053"
     showgrid="false"
     inkscape:zoom="1.285861"
     inkscape:cx="271.69027"
     inkscape:cy="53.413821"
     inkscape:window-x="0"
     inkscape:window-y="0"
     inkscape:window-maximized="1"
     inkscape:current-layer="svg3022" />
  <clipPath
     id="a">
    <path
       d="M 624.9,44.946 H 744.101 V 79.37 H 624.9 z"
       id="path3025"
       inkscape:connector-curvature="0" />
  </clipPath>
  <path
     style="fill:#ed1c24"
     inkscape:connector-curvature="0"
     id="path3033"
     d="m 11.698625,12.96432 c 0.0175,0.0125 0.01625,0.0125 0,0" />
  <g
     style="fill:#ed1c24;fill-opacity:1"
     id="g3035"
     transform="matrix(1.1619226,0,0,-1.1619226,-756.65428,89.540348)">
    <path
       inkscape:connector-curvature="0"
       id="path3037"
       transform="translate(676.5761,68.6741)"
       d="m 0,0 c 3.074,0.839 5.658,-0.799 6.66,-3.11 l 10e-4,-0.001 c 0.128,-0.286 0.265,-0.347 0.407,-0.349 0.28,-0.003 2.127,0.326 2.749,1.09 0,0 0.625,-2.296 -2.08,-3.67 0,0 -0.381,-0.186 -0.384,-0.591 -0.002,-0.387 -0.204,-2.354 -0.309,-2.897 -0.046,-0.242 -0.246,-0.761 0.23,-0.781 0.394,-0.016 1.566,0.272 2.299,2.289 0.023,0.126 0.005,-0.009 0.005,-0.009 -0.542,-4.447 -3.298,-7.757 -6.06,-8.649 -1.93,-0.624 -1.673,0.645 -1.339,1.425 1.149,2.996 1.174,4.472 1.344,6.375 C 3.701,-6.894 3.226,-1.028 0,0 m -2.218,-3.967 c -0.841,-0.183 -1.328,-2.412 -1.425,-5.573 -0.097,-3.165 0.135,-5.974 1.275,-5.737 1.137,0.248 1.23,3.187 1.308,6.349 0.087,3.161 -0.358,5.14 -1.158,4.961 m 4.542,-4.161 c -0.13,-4.712 -1.386,-9.214 -4.828,-9.969 -3.208,-0.531 -4.915,4.55 -4.49,8.003 0.208,4.775 1.973,8.157 4.736,8.917 2.621,0.713 4.7,-2.269 4.582,-6.951"
       style="fill:#ed1c24;fill-opacity:1" />
    <path
       inkscape:connector-curvature="0"
       id="path3039"
       transform="translate(673.3627,69.1783)"
       d="m 0,0 c -2.683,-1.709 -4.689,-6.026 -4.93,-10.549 -0.049,-0.92 -0.455,-7.48 4.385,-9.66 -3.167,-0.497 -6.616,-0.92 -8.31,-0.976 0,0 0.492,1.602 0.595,4.314 0.085,2.238 -0.259,4.102 -1.075,3.982 -0.603,-0.089 -1.304,-2.209 -1.354,-4.074 -0.065,-2.462 0.471,-4.282 0.471,-4.282 -1.897,-0.049 -5.334,-0.106 -9.685,0.746 0.584,0.092 5.485,2.86 6.109,8.625 0.695,6.421 -4.956,8.097 -7.531,9.171 3.687,-0.115 6.26,0.102 11.622,0.897 0,0 -0.657,-1.037 -0.667,-3.937 -0.01,-2.651 0.558,-4.056 1.082,-4.048 0.619,0.009 1.2,1.385 1.303,4.201 0.107,2.89 -0.386,3.992 -0.386,3.992 C -5.895,-1.155 -4.216,-0.929 0,0"
       style="fill:#ed1c24;fill-opacity:1" />
    <path
       inkscape:connector-curvature="0"
       id="path3041"
       transform="translate(683.0206,71.2625)"
       d="m 0,0 c 1.062,-0.263 5.756,-1.791 6.048,-8.316 0.266,-5.976 -2.193,-9.566 -2.933,-10.506 0,0 1.612,0.539 3.285,1.183 1.818,0.7 3.616,1.42 3.616,1.42 0,0 -0.506,1.323 0.115,3.645 0.673,2.513 1.636,3.233 1.636,3.233 0,0 -0.231,-1.02 0.503,-2.933 0.725,-1.889 1.56,-2.38 1.56,-2.38 l 2.769,1.244 c 0,0 -0.861,1.889 0.438,4.73 1.098,2.402 2.45,5.322 1.338,8.838 C 17.802,1.97 17.059,3.012 16.687,3.454 16.257,3.381 12.76,2.715 11.98,2.56 c 0.854,-0.35 2.686,-1.449 3.022,-4.492 0.231,-2.094 -0.84,-3.88 -0.84,-3.88 0,0 0.107,0.939 -0.649,2.01 -0.721,1.021 -1.418,1.265 -1.418,1.265 0,0 -0.069,-1.425 -0.907,-2.992 -0.646,-1.207 -1.487,-1.862 -1.487,-1.862 0,0 0.677,2.61 0.004,5.258 C 9.083,0.314 7.773,1.266 7.215,1.571 6.046,1.323 1.076,0.237 0,0 M 24.538,4.692 C 24.816,2.24 24.431,-1.121 23.462,-1.349 22.668,-1.537 22.22,2.202 22.79,4.456 21.775,4.307 18.873,3.843 17.601,3.623 c 4.425,-5.036 2.344,-11.825 -0.165,-16.677 1.484,0.669 4.09,1.787 5.533,2.379 -0.688,2.488 -0.228,5.916 0.646,6.2 0.763,0.248 1.48,-3.805 0.764,-5.633 1.324,0.571 3.158,1.212 5.089,1.88 -2.458,1.092 -4.571,8.59 0.159,13.413 C 28.518,5.114 25.566,4.817 24.538,4.692"
       style="fill:#ed1c24;fill-opacity:1" />
    <path
       inkscape:connector-curvature="0"
       id="path3043"
       transform="translate(734.0744,64.9105)"
       d="m 0,0 c -0.358,-0.06 -0.779,-0.019 -1.219,0.118 -0.693,0.216 -1.18,0.417 -1.772,0.638 l 0.043,2.371 c 0.288,-0.603 1.182,-1.321 1.676,-1.254 0.133,0.017 0.245,0.118 0.27,0.243 0.04,0.198 -0.07,0.454 -0.309,0.718 C -1.55,3.098 -1.983,3.536 -2.35,3.943 -3.984,5.755 -3.296,6.99 -2.917,7.317 -2.375,7.785 -1.711,7.678 -1.438,7.621 -0.435,7.413 0.351,6.575 0.721,5.745 0.937,5.26 1.081,4.73 0.994,4.16 0.773,4.737 -0.666,6.345 -1.179,5.705 -1.524,5.275 -0.707,4.656 0.139,3.907 1.28,2.897 1.42,2.147 1.14,1.076 0.982,0.471 0.588,0.099 0,0"
       style="fill:#ed1c24;fill-opacity:1" />
    <path
       inkscape:connector-curvature="0"
       id="path3045"
       transform="translate(713.8787,70.1355)"
       d="M 0,0 C 0,0 -0.041,1.404 0.514,2.744 1.07,4.083 1.893,4.816 2.44,4.332 2.965,3.865 2.549,2.951 2.1,2.394 1.652,1.837 1.373,1.57 0.795,1.053 0.218,0.536 0,0 0,0 M 0.987,-1.058 C 2.289,0.163 3.78,1.23 4.332,2.791 4.885,4.354 4.876,5.419 3.777,6.107 2.744,6.751 0.851,6.711 -0.955,4.602 -2.93,2.297 -3.304,-1.694 -2.738,-3.633 c 0.487,-1.665 1.439,-3.2 3.263,-2.841 3.2,0.63 3.088,5.25 3.088,5.25 0,0 -1.194,-2.122 -2.277,-2.191 -1.136,-0.072 -1.408,1.364 -0.349,2.357"
       style="fill:#ed1c24;fill-opacity:1" />
    <path
       inkscape:connector-curvature="0"
       id="path3047"
       transform="translate(721.3199,72.9361)"
       d="M 0,0 C 0.444,1.093 1.108,1.694 1.556,1.302 1.986,0.925 1.653,0.178 1.292,-0.277 0.931,-0.732 0.706,-0.951 0.239,-1.374 c -0.466,-0.425 -0.64,-0.862 -0.64,-0.862 0,0 -0.042,1.143 0.401,2.236 m 0.749,-4.953 c -1.074,-0.086 -1.196,1.047 -0.341,1.861 1.05,0.999 2.256,1.875 2.695,3.149 0.44,1.276 0.426,2.142 -0.471,2.697 -0.843,0.52 -2.4,0.443 -3.855,-1.282 -1.592,-1.887 -1.929,-5.18 -1.48,-6.762 0.454,-1.596 1.295,-2.628 2.894,-2.205 2.434,0.644 3.075,4.293 3.075,4.293 0,0 -1.375,-1.659 -2.517,-1.751"
       style="fill:#ed1c24;fill-opacity:1" />
    <path
       inkscape:connector-curvature="0"
       id="path3049"
       transform="translate(725.5642,75.4837)"
       d="m 0,0 c 0.775,-2.736 0.234,-7.599 -1.492,-9.678 2.13,0.208 4.11,0.244 5.981,-0.054 l 0.107,3.827 C 3.888,-7.643 -0.03,-9.855 3.1,-0.901 2.331,-0.643 1.44,-0.324 0,0"
       style="fill:#ed1c24;fill-opacity:1" />
    <path
       inkscape:connector-curvature="0"
       id="path3051"
       transform="translate(736.3152,64.1878)"
       d="M 0,0 C 0.112,0 0.154,0.006 0.188,0.032 0.222,0.057 0.242,0.099 0.242,0.143 0.242,0.204 0.21,0.25 0.152,0.269 0.121,0.28 0.074,0.284 -0.023,0.284 H -0.119 V 0 z M 0.007,0.374 C 0.101,0.374 0.146,0.37 0.199,0.353 0.291,0.324 0.354,0.24 0.354,0.145 0.354,0.046 0.287,-0.036 0.179,-0.067 l 0.182,-0.4 H 0.235 L 0.067,-0.088 0.058,-0.086 H -0.02 -0.105 l -0.014,-0.002 v -0.379 h -0.114 v 0.841 h 0.24 z m -0.614,-0.418 c 0,-0.36 0.289,-0.652 0.65,-0.652 0.358,0 0.649,0.292 0.649,0.654 0,0.364 -0.282,0.647 -0.643,0.647 -0.378,0 -0.656,-0.275 -0.656,-0.649 M 0.79,-0.046 c 0,-0.419 -0.324,-0.74 -0.747,-0.74 -0.426,0 -0.748,0.319 -0.748,0.74 0,0.429 0.318,0.742 0.752,0.742 0.419,0 0.743,-0.324 0.743,-0.742"
       style="fill:#ed1c24;fill-opacity:1" />
  </g>
</svg>
