<svg version="1.1" xmlns="http://www.w3.org/2000/svg" xmlns:xlink="http://www.w3.org/1999/xlink" x="0px" y="0px" width="1000px" height="500px">						<rect fill="#F0F0F0" width="1000" height="500"/>						<g><rect x="0" fill="#2C84C7" width="250" height="460"/><rect x="250" fill="#4251AE" width="250" height="460"/><rect x="500" fill="#F1D74D" width="250" height="460"/><rect x="750" fill="#D42F41" width="250" height="460"/></g>						<g font-family="Arial-BoldMT" opacity="0.4" font-size="16"><text transform="matrix(1 0 0 1 95 45)" fill="#FFF">2C84C7</text><text transform="matrix(1 0 0 1 345 45)" fill="#FFF">4251AE</text><text transform="matrix(1 0 0 1 595 45)" fill="#000">F1D74D</text><text transform="matrix(1 0 0 1 845 45)" fill="#FFF">D42F41</text></g>						<g>						    <text data-svg="palette-name" transform="translate(20 485)" font-family="ArialMT" font-size="13">Hot Wheels Color Scheme</text>						    <g data-svg="logo" transform="translate(850 485)">								<path fill="#2C4CD1" d="M-5 -10 a4.703 4.703 0 0 0-6.65-.092l-.093.092-2.327 2.327a4.731 4.731 0 0 0-1.282-2.327c-1.898-1.898-4.986-1.898-6.838 0l-4.653 4.654a4.7 4.7 0 0 0 0 6.743 4.7 4.7 0 0 0 6.743 0l2.327-2.327c.195.883.641 1.69 1.282 2.327 1.853 1.853 4.939 1.853 6.791 0l4.653-4.654a4.66 4.66 0 0 0 .047-6.743zm-16.622 9.877c-.997.996-2.659.996-3.705 0-.996-.997-.996-2.66 0-3.657l4.654-4.654c.997-.996 2.659-.996 3.705 0a2.61 2.61 0 0 1 0 3.658l-4.654 4.653zm15.103-4.653-4.653 4.653c-.998.997-2.66.997-3.705 0-.997-.997-.997-2.66 0-3.657l4.653-4.701c.997-.996 2.659-.996 3.705 0 .996.997.996 2.66 0 3.705z"/>						    	<path d="M0 0 c-.504-.229-.902-.539-1.196-.933a2.35 2.35 0 0 1-.482-1.302h1.974c.038.299.185.546.441.742.256.196.575.294.959.294.372 0 .664-.074.875-.224.21-.15.314-.341.314-.574 0-.252-.129-.441-.386-.567s-.665-.264-1.226-.413a10.123 10.123 0 0 1-1.421-.434 2.46 2.46 0 0 1-.952-.686c-.266-.31-.398-.725-.398-1.246 0-.431.124-.821.371-1.178.247-.354.603-.634 1.063-.84.462-.205 1.006-.308 1.631-.308.925 0 1.661.229 2.212.691.552.464.854 1.086.91 1.869h-1.876a1.003 1.003 0 0 0-.385-.733c-.229-.184-.535-.273-.917-.273-.354 0-.628.065-.819.196a.627.627 0 0 0-.286.546c0 .262.131.46.393.595.261.136.667.273 1.218.413.561.14 1.021.285 1.386.435.365.15.68.381.945.692.267.312.403.727.413 1.239 0 .448-.124.85-.371 1.204-.248.354-.603.632-1.063.833-.462.2-1.001.301-1.617.301-.637.004-1.206-.11-1.71-.339zm6.356-5.768a3.497 3.497 0 0 1 1.357-1.398c.579-.331 1.241-.497 1.988-.497.961 0 1.757.24 2.387.721.631.48 1.053 1.155 1.268 2.023h-2.113a1.562 1.562 0 0 0-.566-.791c-.267-.191-.596-.287-.987-.287-.561 0-1.004.203-1.33.608s-.489.981-.489 1.729c0 .737.163 1.309.489 1.715s.771.609 1.33.609c.793 0 1.312-.354 1.555-1.064h2.113c-.215.84-.64 1.508-1.273 2.002-.635.495-1.428.742-2.38.742-.747 0-1.409-.166-1.988-.497a3.478 3.478 0 0 1-1.356-1.399c-.327-.603-.49-1.305-.49-2.106s.159-1.508.485-2.11zm14.378-1.498c.457.258.813.636 1.07 1.136.257.499.386 1.099.386 1.799v4.55h-1.96v-4.284c0-.616-.153-1.09-.463-1.421-.308-.331-.728-.497-1.26-.497-.541 0-.968.166-1.281.497-.312.331-.469.805-.469 1.421v4.284h-1.96v-10.36h1.96v3.57c.252-.336.588-.6 1.008-.791a3.36 3.36 0 0 1 1.4-.287c.588-.002 1.111.127 1.569.383zm10.472 4.193h-5.67c.047.561.241.999.588 1.316.345.316.77.476 1.272.476.729 0 1.246-.312 1.556-.938h2.113a3.546 3.546 0 0 1-1.288 1.841c-.635.479-1.413.721-2.339.721-.745 0-1.416-.166-2.009-.497s-1.055-.8-1.386-1.407c-.331-.605-.497-1.307-.497-2.1 0-.803.163-1.507.49-2.114a3.409 3.409 0 0 1 1.372-1.398c.588-.327 1.265-.49 2.028-.49.737 0 1.398.158 1.981.476a3.357 3.357 0 0 1 1.358 1.353c.32.583.481 1.253.481 2.009.005.276-.013.528-.05.752zm-1.974-1.316c-.01-.504-.19-.906-.547-1.211-.354-.303-.788-.455-1.302-.455-.485 0-.894.147-1.225.441-.332.294-.534.702-.609 1.225h3.683zm15.393-2.387c.583.584.875 1.398.875 2.443v4.55h-1.96v-4.284c0-.605-.154-1.071-.463-1.393-.309-.322-.729-.483-1.261-.483-.531 0-.953.161-1.267.483-.312.32-.469.786-.469 1.393v4.284h-1.96v-4.284c0-.605-.154-1.071-.463-1.393-.309-.322-.729-.483-1.261-.483-.541 0-.968.161-1.28.483-.312.32-.47.786-.47 1.393v4.284h-1.96v-7.756h1.96v.938c.252-.325.576-.583.975-.77.396-.188.833-.28 1.309-.28.606 0 1.148.129 1.624.385.477.258.845.623 1.106 1.101a2.788 2.788 0 0 1 1.099-1.078 3.126 3.126 0 0 1 1.561-.406c.953-.002 1.721.29 2.305.873zm9.89 3.703h-5.67c.047.561.242.999.588 1.316.346.316.771.476 1.273.476.729 0 1.246-.312 1.555-.938h2.114a3.557 3.557 0 0 1-1.288 1.841c-.635.479-1.414.721-2.339.721-.746 0-1.416-.166-2.009-.497a3.486 3.486 0 0 1-1.387-1.407c-.331-.605-.497-1.307-.497-2.1 0-.803.163-1.507.49-2.114a3.415 3.415 0 0 1 1.372-1.398c.588-.327 1.266-.49 2.029-.49.736 0 1.397.158 1.98.476a3.357 3.357 0 0 1 1.358 1.353c.321.583.481 1.253.481 2.009.006.276-.013.528-.05.752zm-1.973-1.316c-.01-.504-.191-.906-.547-1.211-.354-.303-.788-.455-1.303-.455-.484 0-.894.147-1.225.441-.332.294-.534.702-.609 1.225h3.684zm3.444-1.379a3.497 3.497 0 0 1 1.357-1.398c.579-.331 1.241-.497 1.988-.497.961 0 1.757.24 2.387.721.631.48 1.053 1.155 1.268 2.023h-2.113a1.556 1.556 0 0 0-.566-.791c-.267-.191-.596-.287-.986-.287-.562 0-1.005.203-1.33.608-.327.405-.49.981-.49 1.729 0 .737.163 1.309.49 1.715.325.406.77.609 1.33.609.793 0 1.311-.354 1.554-1.064h2.114c-.216.84-.641 1.508-1.274 2.002-.635.495-1.428.742-2.38.742-.747 0-1.409-.166-1.988-.497a3.484 3.484 0 0 1-1.356-1.399c-.327-.603-.49-1.305-.49-2.106s.158-1.508.485-2.11zm9.869 5.614a3.561 3.561 0 0 1-1.405-1.407c-.342-.605-.513-1.307-.513-2.1s.176-1.493.525-2.1a3.636 3.636 0 0 1 1.435-1.407c.607-.331 1.283-.497 2.03-.497s1.424.166 2.03.497c.605.331 1.085.8 1.435 1.407.352.605.525 1.307.525 2.1s-.18 1.493-.539 2.1c-.359.607-.845 1.076-1.456 1.407s-1.295.497-2.051.497c-.746 0-1.418-.166-2.016-.497zm3.018-1.47c.312-.173.562-.433.749-.777.187-.345.28-.765.28-1.26 0-.737-.194-1.305-.581-1.701a1.918 1.918 0 0 0-1.422-.595 1.86 1.86 0 0 0-1.406.595c-.378.397-.567.964-.567 1.701s.186 1.305.553 1.701c.369.396.833.595 1.395.595.352 0 .686-.086.999-.259zm6.447-8.519v10.36h-1.961v-10.36h1.961zm3.358 9.989a3.564 3.564 0 0 1-1.406-1.407c-.341-.605-.512-1.307-.512-2.1s.176-1.493.525-2.1a3.636 3.636 0 0 1 1.435-1.407c.607-.331 1.283-.497 2.03-.497s1.424.166 2.03.497c.605.331 1.085.8 1.435 1.407.351.605.525 1.307.525 2.1s-.181 1.493-.539 2.1a3.735 3.735 0 0 1-1.456 1.407c-.611.331-1.295.497-2.051.497-.746 0-1.418-.166-2.016-.497zm3.017-1.47c.312-.173.562-.433.75-.777.187-.345.279-.765.279-1.26 0-.737-.193-1.305-.581-1.701a1.914 1.914 0 0 0-1.421-.595c-.561 0-1.029.198-1.407.595-.378.397-.566.964-.566 1.701s.185 1.305.553 1.701c.369.396.833.595 1.394.595.353 0 .687-.086.999-.259zm7.434-5.677c.406-.233.87-.352 1.393-.352v2.06h-.518c-.616 0-1.08.145-1.394.434-.312.289-.47.793-.47 1.512v3.864h-1.96v-7.756h1.96v1.204a2.78 2.78 0 0 1 .989-.966zm2.703 7.287a1.085 1.085 0 0 1-.344-.817c0-.327.114-.601.344-.819.229-.219.521-.329.875-.329.345 0 .63.11.854.329.222.214.344.511.336.819 0 .326-.111.6-.336.817-.225.221-.51.329-.854.329-.355 0-.647-.11-.875-.329zm3.632-5.754a3.497 3.497 0 0 1 1.357-1.398c.578-.331 1.24-.497 1.987-.497.961 0 1.757.24 2.388.721s1.053 1.155 1.268 2.023h-2.114a1.554 1.554 0 0 0-.565-.791c-.268-.191-.597-.287-.987-.287-.562 0-1.004.203-1.33.608-.327.405-.49.981-.49 1.729 0 .737.163 1.309.49 1.715.326.406.771.609 1.33.609.793 0 1.311-.354 1.554-1.064h2.114c-.215.84-.64 1.508-1.274 2.002-.635.495-1.428.742-2.38.742-.747 0-1.409-.166-1.987-.497a3.486 3.486 0 0 1-1.357-1.399c-.327-.603-.49-1.305-.49-2.106s.159-1.508.486-2.11zm9.87 5.614a3.564 3.564 0 0 1-1.406-1.407c-.341-.605-.512-1.307-.512-2.1s.176-1.493.524-2.1a3.639 3.639 0 0 1 1.436-1.407 4.166 4.166 0 0 1 2.03-.497c.746 0 1.424.166 2.029.497.606.331 1.085.8 1.436 1.407.351.605.524 1.307.524 2.1s-.18 1.493-.539 2.1a3.721 3.721 0 0 1-1.456 1.407c-.61.331-1.295.497-2.051.497-.746 0-1.418-.166-2.015-.497zm3.017-1.47c.312-.173.562-.433.749-.777.188-.345.28-.765.28-1.26 0-.737-.194-1.305-.581-1.701a1.914 1.914 0 0 0-1.421-.595c-.561 0-1.029.198-1.407.595-.378.397-.566.964-.566 1.701s.185 1.305.553 1.701c.369.396.833.595 1.394.595.353 0 .687-.086.999-.259zm16.423-5.152c.583.584.875 1.398.875 2.443v4.55h-1.96v-4.284c0-.605-.153-1.071-.463-1.393-.308-.322-.728-.483-1.26-.483s-.954.161-1.268.483c-.312.32-.469.786-.469 1.393v4.284h-1.96v-4.284c0-.605-.153-1.071-.463-1.393-.308-.322-.728-.483-1.26-.483-.541 0-.968.161-1.281.483-.312.32-.469.786-.469 1.393v4.284h-1.96v-7.756h1.96v.938c.252-.325.576-.583.974-.77.396-.188.833-.28 1.31-.28.605 0 1.147.129 1.624.385.476.258.845.623 1.105 1.101a2.79 2.79 0 0 1 1.1-1.078 3.124 3.124 0 0 1 1.561-.406c.952-.002 1.72.29 2.304.873z"/>						    </g>						</g>					</svg>